<svg width="144" height="147" viewBox="0 0 144 147" fill="none" xmlns="http://www.w3.org/2000/svg">
<rect x="2" y="2" width="140" height="143" rx="70" fill="white"/>
<rect x="2" y="2" width="140" height="143" rx="70" stroke="#00015B" stroke-width="4"/>
<path d="M100.208 86.6147L89.6129 84.0637V80.4367C93.7072 77.2355 96.3871 72.0365 96.3871 66.1594V57.3525H97.7419V45.3576C97.7419 44.7778 97.6905 44.1965 97.6065 43.6153L103.161 41.735V45.8801C101.588 46.4878 100.452 48.1024 100.452 50.0135V54.4169H108.581V50.0135C108.581 48.1024 107.444 46.4878 105.871 45.8801V38.271C105.871 36.7459 104.969 35.4176 103.627 34.9655L85.8288 28.9401C82.1342 27.6866 78.1225 27.6866 74.4292 28.9401L56.6307 34.964C55.2894 35.4176 54.3871 36.7459 54.3871 38.271C54.3871 39.796 55.2894 41.1244 56.6307 41.5765L62.6516 43.6153C62.5676 44.1965 62.5161 44.7778 62.5161 45.3576V57.3525H63.871V66.1594C63.871 72.0365 66.5508 77.2355 70.6452 80.4367V84.0637L60.0503 86.6133C59.9717 86.6324 59.8864 86.6603 59.8065 86.6823V61.7559H30V102.855H37.2484C37.6955 104.218 38.442 105.425 39.4039 106.386L37.9488 119H41.0582L44.9032 117.612L48.7483 119H50.3226H51.8576H114V105.241C114 96.2274 108.329 88.5699 100.208 86.6147ZM104.516 48.5457C105.264 48.5457 105.871 49.2032 105.871 50.0135V51.4813H103.161V50.0135C103.161 49.2032 103.768 48.5457 104.516 48.5457ZM57.4382 38.7745C57.235 38.7055 57.0968 38.5029 57.0968 38.271C57.0968 38.0391 57.235 37.8365 57.4382 37.7661L75.2367 31.7407C76.8232 31.205 78.468 30.9319 80.129 30.9319C81.7901 30.9319 83.4348 31.205 85.0214 31.7407L102.82 37.7675C103.023 37.8365 103.161 38.0391 103.161 38.271C103.161 38.5029 103.023 38.7055 102.82 38.7759L85.0214 44.8013C81.8483 45.8728 78.4084 45.8728 75.2354 44.8013L57.4382 38.7745ZM65.2258 45.3576C65.2258 45.0743 65.2543 44.7895 65.2827 44.5048L74.4292 47.6019C76.2759 48.2286 78.193 48.5457 80.129 48.5457C82.0651 48.5457 83.9822 48.2286 85.8288 47.6019L94.9767 44.5062C95.0038 44.791 95.0323 45.0758 95.0323 45.3576V54.4169H93.6774H66.5806H65.2258V45.3576ZM66.5806 66.1594V57.3525H93.6774V66.1594C93.6774 74.2529 87.5996 80.8375 80.129 80.8375C72.6585 80.8375 66.5806 74.2529 66.5806 66.1594ZM80.129 86.5355L73.3548 82.866V82.1511C75.4196 83.1815 77.7093 83.7731 80.129 83.7731C82.5488 83.7731 84.8385 83.1815 86.9032 82.1511V82.866L80.129 86.5355ZM86.0172 86.6294L83.7993 91.0329L82.187 88.7034L86.0172 86.6294ZM78.0724 88.702L76.4601 91.0314L74.2423 86.628L78.0724 88.702ZM36.7742 99.919H32.7097V64.6916H57.0968V99.919H53.0323C53.0323 95.062 49.3864 91.1121 44.9032 91.1121C40.4201 91.1121 36.7742 95.062 36.7742 99.919ZM44.9032 114.518L41.0365 115.914L41.9361 108.109C42.8574 108.503 43.8559 108.726 44.9032 108.726C45.9505 108.726 46.949 108.503 47.8703 108.109L48.7713 115.914L44.9032 114.518ZM44.9032 105.79C41.9145 105.79 39.4839 103.157 39.4839 99.919C39.4839 96.681 41.9145 94.0477 44.9032 94.0477C47.892 94.0477 50.3226 96.681 50.3226 99.919C50.3226 103.157 47.892 105.79 44.9032 105.79ZM66.5806 116.065H62.5161V110.194H59.8065V116.065H51.5189L50.4025 106.386C51.3658 105.425 52.1123 104.218 52.5581 102.855H59.8065V91.2413L66.5806 104.697V116.065ZM78.7742 116.065H69.2903V103.948L61.8577 89.1864L71.2982 86.9127L78.7742 101.761V116.065ZM77.8841 93.8643L80.129 90.6219L82.374 93.8643L80.129 98.322L77.8841 93.8643ZM90.9677 116.065H81.4839V101.761L88.9599 86.9142L98.4004 89.1864L90.9677 103.948V116.065ZM111.29 116.065H100.452V110.194H97.7419V116.065H93.6774V104.697L101.11 89.9349C107.173 92.1088 111.29 98.1811 111.29 105.241V116.065Z" fill="#00015B"/>
<path d="M54.3873 67.627H46.2583V70.5626H54.3873V67.627Z" fill="#00015B"/>
<path d="M54.3872 73.498H35.4194V76.4337H54.3872V73.498Z" fill="#00015B"/>
<path d="M54.3872 79.3701H35.4194V82.3057H54.3872V79.3701Z" fill="#00015B"/>
<path d="M46.2581 85.2412H35.4194V88.1768H46.2581V85.2412Z" fill="#00015B"/>
</svg>
