<svg width="99" height="99" viewBox="0 0 99 99" fill="none" xmlns="http://www.w3.org/2000/svg">
<rect x="2.12131" y="49.317" width="67" height="67" rx="8.5" transform="rotate(-44.7822 2.12131 49.317)" fill="#00015B"/>
<rect x="2.12131" y="49.317" width="67" height="67" rx="8.5" transform="rotate(-44.7822 2.12131 49.317)" stroke="#00015B" stroke-width="3"/>
<path d="M59.8692 50.8322C59.8625 48.5539 58.9883 46.3596 57.4171 44.6772C55.8458 42.9948 53.6901 41.9448 51.3702 41.7319C49.0502 41.519 46.7323 42.1585 44.8684 43.5257C43.0044 44.8929 41.728 46.8899 41.2879 49.1272C41.0355 50.4093 41.0724 51.7299 41.3963 52.9966C41.7202 54.2632 42.3231 55.4455 43.1629 56.4606C44.2702 57.7776 44.8735 59.4307 44.8692 61.1356V63.6656C44.8692 64.1518 45.0667 64.6181 45.4184 64.9619C45.77 65.3057 46.2469 65.4989 46.7442 65.4989H54.2442C54.7415 65.4989 55.2184 65.3057 55.57 64.9619C55.9216 64.6181 56.1192 64.1518 56.1192 63.6656V61.1356C56.1167 59.4651 56.7064 57.8454 57.7879 56.5522C59.1354 54.9372 59.8707 52.9165 59.8692 50.8322Z" fill="#00015B"/>
<path d="M50.494 32.4984V34.3317M63.7503 37.8701L62.419 39.1717M37.2378 37.8701L38.569 39.1717M59.869 50.8317C59.8624 48.5534 58.9882 46.3591 57.417 44.6767C55.8457 42.9943 53.69 41.9443 51.37 41.7314C49.0501 41.5185 46.7322 42.158 44.8682 43.5252C43.0043 44.8924 41.7279 46.8894 41.2878 49.1267C41.0353 50.4088 41.0723 51.7294 41.3962 52.9961C41.72 54.2628 42.323 55.445 43.1628 56.4601C44.27 57.7771 44.8734 59.4302 44.869 61.1351V63.6651C44.869 64.1513 45.0666 64.6176 45.4182 64.9614C45.7698 65.3053 46.2468 65.4984 46.744 65.4984H54.244C54.7413 65.4984 55.2182 65.3053 55.5699 64.9614C55.9215 64.6176 56.119 64.1513 56.119 63.6651V61.1351C56.1165 59.4646 56.7063 57.8449 57.7878 56.5517C59.1353 54.9367 59.8706 52.916 59.869 50.8317Z" stroke="#FDCA30" stroke-width="3" stroke-linecap="round" stroke-linejoin="round"/>
</svg>
