<svg width="99" height="99" viewBox="0 0 99 99" fill="none" xmlns="http://www.w3.org/2000/svg">
<rect x="3.53551" y="49.3224" width="65" height="65" rx="7.5" transform="rotate(-44.7822 3.53551 49.3224)" fill="white"/>
<rect x="3.53551" y="49.3224" width="65" height="65" rx="7.5" transform="rotate(-44.7822 3.53551 49.3224)" stroke="#FDCA30" stroke-width="5"/>
<g clip-path="url(#clip0_401_668)">
<path d="M31.5835 42.0834V32.5834H41.0835" stroke="#00015B" stroke-width="3" stroke-miterlimit="10"/>
<path d="M56.9165 32.5834H66.4165V42.0834" stroke="#00015B" stroke-width="3" stroke-miterlimit="10"/>
<path d="M31.5835 57.9173V67.4174H41.0835" stroke="#00015B" stroke-width="3" stroke-miterlimit="10"/>
<path d="M56.9165 67.4174H66.4165V57.9173" stroke="#00015B" stroke-width="2" stroke-miterlimit="10"/>
<path d="M64.8332 50.0005C63.2308 52.7827 60.9236 55.0935 58.144 56.7002C55.3644 58.307 52.2104 59.153 48.9998 59.153C45.7892 59.153 42.6353 58.307 39.8557 56.7002C37.0761 55.0935 34.7689 52.7827 33.1665 50.0005C34.7689 47.2183 37.0761 44.9075 39.8557 43.3008C42.6353 41.694 45.7892 40.848 48.9998 40.848C52.2104 40.848 55.3644 41.694 58.144 43.3008C60.9236 44.9075 63.2308 47.2183 64.8332 50.0005Z" stroke="#00015B" stroke-width="2" stroke-miterlimit="10"/>
<path d="M64.8332 50.0005C63.2308 52.7827 60.9236 55.0935 58.144 56.7002C55.3644 58.307 52.2104 59.153 48.9998 59.153C45.7892 59.153 42.6353 58.307 39.8557 56.7002C37.0761 55.0935 34.7689 52.7827 33.1665 50.0005C34.7689 47.2183 37.0761 44.9075 39.8557 43.3008C42.6353 41.694 45.7892 40.848 48.9998 40.848C52.2104 40.848 55.3644 41.694 58.144 43.3008C60.9236 44.9075 63.2308 47.2183 64.8332 50.0005Z" stroke="#00015B" stroke-width="3" stroke-miterlimit="10"/>
<path d="M49 54.7504C51.6234 54.7504 53.75 52.6237 53.75 50.0004C53.75 47.377 51.6234 45.2504 49 45.2504C46.3766 45.2504 44.25 47.377 44.25 50.0004C44.25 52.6237 46.3766 54.7504 49 54.7504Z" stroke="#00015B" stroke-width="2" stroke-miterlimit="10"/>
</g>
<defs>
<clipPath id="clip0_401_668">
<rect width="38" height="38" fill="white" transform="translate(30 31.0004)"/>
</clipPath>
</defs>
</svg>
