<svg width="99" height="99" viewBox="0 0 99 99" fill="none" xmlns="http://www.w3.org/2000/svg">
<rect x="2.12131" y="49.317" width="67" height="67" rx="8.5" transform="rotate(-44.7822 2.12131 49.317)" fill="#00015B"/>
<rect x="2.12131" y="49.317" width="67" height="67" rx="8.5" transform="rotate(-44.7822 2.12131 49.317)" stroke="#00015B" stroke-width="3"/>
<path d="M39.7025 39.5043C40.784 39.5043 41.6608 38.6648 41.6608 37.6293C41.6608 36.5937 40.784 35.7543 39.7025 35.7543C38.6209 35.7543 37.7441 36.5937 37.7441 37.6293C37.7441 38.6648 38.6209 39.5043 39.7025 39.5043Z" fill="#00015B"/>
<path d="M62.5443 45.3324C63.6258 45.3324 64.5026 44.4929 64.5026 43.4574C64.5026 42.4219 63.6258 41.5824 62.5443 41.5824C61.4627 41.5824 60.5859 42.4219 60.5859 43.4574C60.5859 44.4929 61.4627 45.3324 62.5443 45.3324Z" fill="#00015B"/>
<path d="M45.5731 58.2582C46.6546 58.2582 47.5314 57.4187 47.5314 56.3832C47.5314 55.3476 46.6546 54.5082 45.5731 54.5082C44.4915 54.5082 43.6147 55.3476 43.6147 56.3832C43.6147 57.4187 44.4915 58.2582 45.5731 58.2582Z" fill="#00015B"/>
<path d="M36.0709 43.9453L38.0825 42.249L41.2381 42.1254L43.1759 43.8923L43.6226 46.3797L35.7363 46.3749L36.0709 43.9453Z" fill="#00015B"/>
<path d="M58.9538 49.7734L60.9653 48.0772L64.121 47.9535L66.0587 49.7204L66.5054 52.2079L58.6191 52.203L58.9538 49.7734Z" fill="#00015B"/>
<path d="M41.9772 62.6991L43.9887 61.003L47.1445 60.8793L49.0822 62.6461L49.5289 65.1336L41.6426 65.1288L41.9772 62.6991Z" fill="#00015B"/>
<path d="M39.7025 39.5043C40.784 39.5043 41.6608 38.6648 41.6608 37.6293C41.6608 36.5937 40.784 35.7543 39.7025 35.7543C38.6209 35.7543 37.7441 36.5937 37.7441 37.6293C37.7441 38.6648 38.6209 39.5043 39.7025 39.5043Z" stroke="#FDCA30" stroke-width="2" stroke-miterlimit="10"/>
<path d="M35.7861 45.7535C35.7861 45.7535 36.4389 43.059 37.7445 42.434C39.05 41.809 40.3556 41.809 41.6611 42.434C42.9667 43.059 43.6195 45.7535 43.6195 45.7535" stroke="#FDCA30" stroke-width="2" stroke-miterlimit="10" stroke-linecap="round" stroke-linejoin="round"/>
<path d="M62.5443 45.3324C63.6258 45.3324 64.5026 44.4929 64.5026 43.4574C64.5026 42.4219 63.6258 41.5824 62.5443 41.5824C61.4627 41.5824 60.5859 42.4219 60.5859 43.4574C60.5859 44.4929 61.4627 45.3324 62.5443 45.3324Z" stroke="#FDCA30" stroke-width="2" stroke-miterlimit="10"/>
<path d="M58.6279 51.5816C58.6279 51.5816 59.2807 48.8871 60.5863 48.2621C61.8918 47.6371 63.1974 47.6371 64.5029 48.2621C65.8085 48.8871 66.4613 51.5816 66.4613 51.5816" stroke="#FDCA30" stroke-width="2" stroke-miterlimit="10" stroke-linecap="round" stroke-linejoin="round"/>
<path d="M45.5731 58.2582C46.6546 58.2582 47.5314 57.4187 47.5314 56.3832C47.5314 55.3476 46.6546 54.5082 45.5731 54.5082C44.4915 54.5082 43.6147 55.3476 43.6147 56.3832C43.6147 57.4187 44.4915 58.2582 45.5731 58.2582Z" stroke="#FDCA30" stroke-width="2" stroke-miterlimit="10"/>
<path d="M41.6562 64.5093C41.6562 64.5093 42.309 61.8148 43.6146 61.1898C44.9201 60.5648 46.2257 60.5648 47.5313 61.1898C48.8368 61.8148 49.4896 64.5093 49.4896 64.5093" stroke="#FDCA30" stroke-width="2" stroke-miterlimit="10" stroke-linecap="round" stroke-linejoin="round"/>
<path d="M60.2988 39.589C57.5448 36.4785 53.4338 34.5043 48.8413 34.5043C47.0336 34.5043 45.3004 34.8101 43.6953 35.3708" stroke="#FDCA30" stroke-width="2" stroke-miterlimit="10" stroke-linecap="round" stroke-linejoin="round"/>
<path d="M51.7354 62.9877C57.0964 61.9854 61.4365 58.2518 63.1111 53.3617" stroke="#FDCA30" stroke-width="2" stroke-miterlimit="10" stroke-linecap="round" stroke-linejoin="round"/>
<path d="M33.8843 47.6215C33.8468 48.0358 33.8276 48.4551 33.8276 48.8787C33.8276 53.8626 36.4767 58.2542 40.5004 60.833" stroke="#FDCA30" stroke-width="2" stroke-miterlimit="10" stroke-linecap="round" stroke-linejoin="round"/>
</svg>
