<svg width="144" height="147" viewBox="0 0 144 147" fill="none" xmlns="http://www.w3.org/2000/svg">
<rect x="2" y="2" width="140" height="143" rx="70" fill="white"/>
<rect x="2" y="2" width="140" height="143" rx="70" stroke="#00015B" stroke-width="4"/>
<g clip-path="url(#clip0_401_275)">
<path d="M110 79.8557C110 75.5555 107.551 71.7923 103.871 69.9757V50.7097C103.871 42.5985 97.2725 36 89.1613 36C81.0501 36 74.4516 42.5985 74.4516 50.7097V52.1586C72.901 51.8938 71.289 51.8656 69.6685 52.1169C69.5815 52.1304 69.4957 52.1537 69.4086 52.1684C69.4932 51.6879 69.5484 51.2025 69.5484 50.7097V45.8065C69.5484 43.8672 68.0406 42.2737 66.1345 42.1388C63.6559 38.3339 59.3914 36 54.8387 36C47.4042 36 41.3548 42.0494 41.3548 49.4839V50.7097C41.3548 53.5106 42.7535 56.1265 45.0323 57.7225V57.7924C45.0323 60.8814 46.4714 63.637 48.7097 65.4353V68.0597L43.2193 68.9742C37.8772 69.8629 34 74.4401 34 79.8557V89.9355H55.6821C51.5082 91.5744 48.7097 95.5815 48.7097 100.188V112H95.2903V100.188C95.2903 95.5815 92.4918 91.5744 88.3179 89.9355H110V79.8557ZM76.9032 50.7097C76.9032 43.9506 82.4022 38.4516 89.1613 38.4516C95.9204 38.4516 101.419 43.9506 101.419 50.7097V69.109C101.207 69.0612 100.998 69.0097 100.781 68.973L95.2903 68.0585V65.4341C97.5286 63.6346 98.9677 60.8802 98.9677 57.7912L98.9592 50.0245L97.221 50.8249C97.1965 50.8372 94.7473 51.9355 89.1613 51.9355C83.5753 51.9355 81.1261 50.8372 81.1114 50.831L79.3548 49.9889V53.9201C78.5765 53.4702 77.7527 53.1012 76.9032 52.7997V50.7097ZM84.7705 59.3663C83.9737 57.9677 82.9648 56.7431 81.8065 55.7048V53.6148C83.2639 53.9814 85.6677 54.3871 89.1613 54.3871C92.6548 54.3871 95.0586 53.9814 96.5161 53.6148V57.7912C96.5161 61.8474 93.2175 65.146 89.1613 65.146C88.7506 65.146 88.3425 65.1006 87.9355 65.0308V63.2252C87.9355 61.319 86.5736 59.7267 84.7705 59.3663ZM86.869 73.0537C87.5506 71.4246 87.9355 69.6692 87.9355 67.871V67.5094C88.3425 67.5608 88.7519 67.5988 89.1613 67.5988C90.4619 67.5988 91.7024 67.339 92.8387 66.8768V68.8994L89.1613 79.9317L86.869 73.0537ZM86.9696 81.1085L83.6121 77.751C84.2164 77.1896 84.7521 76.5705 85.2387 75.9147L86.9696 81.1085ZM94.8968 70.477L96.8336 70.7994L97.6365 74.8225L91.353 81.1072L94.8968 70.477ZM70.0412 54.5391C75.3256 53.7203 80.4899 56.3521 82.9072 61.0739L83.2505 61.7419H83.9994C84.8183 61.7419 85.4839 62.4075 85.4839 63.2252V67.871C85.4839 70.401 84.5915 72.8428 83.031 74.787L83.0249 67.2666L81.3308 67.9666C81.3039 67.9788 78.5201 69.0968 72 69.0968C65.4799 69.0968 62.6961 67.9788 62.6765 67.9703L60.9677 67.2385V71.9419C59.9761 69.8813 59.5605 67.5633 59.8216 65.2294C60.4223 59.8554 64.7199 55.3604 70.0412 54.5391ZM58.3065 71.9357C58.5835 72.6516 58.9047 73.3503 59.2921 74.0172L57.1297 72.719L58.3065 71.9357ZM54.8816 71.2726L51.1613 68.4839V66.8756C52.2976 67.3377 53.5381 67.5976 54.8387 67.5976C55.687 67.5976 56.5181 67.4763 57.3283 67.2605C57.3614 68.0058 57.4411 68.745 57.5845 69.4706L54.8816 71.2726ZM59.8805 77.2275L61.0817 77.9483C61.4434 80.5985 62.7464 82.9459 64.6452 84.651V87.4839H59.5985L58.5627 79.2035L59.8805 77.2275ZM65.5682 90.0385L69.8573 93.4695L66.2424 95.6392L62.9168 90.6501L65.5682 90.0385ZM67.0968 88.1201V86.3194C68.5763 87.0573 70.2373 87.4839 72 87.4839C73.7627 87.4839 75.4237 87.0585 76.9032 86.3194V88.1201L72 92.0426L67.0968 88.1201ZM78.4318 90.0372L81.0832 90.6489L77.7576 95.6379L74.1427 93.4683L78.4318 90.0372ZM72 85.0323C67.2696 85.0323 63.4194 81.182 63.4194 76.4516V70.732C65.0215 71.1059 67.8041 71.5484 72 71.5484C76.1959 71.5484 78.9785 71.1059 80.5806 70.732V76.4516C80.5806 81.182 76.7304 85.0323 72 85.0323ZM45.0323 49.9889V54.3687C44.2526 53.3255 43.8065 52.0458 43.8065 50.7097V49.4839C43.8065 43.4002 48.755 38.4516 54.8387 38.4516C58.7539 38.4516 62.4117 40.5661 64.3828 43.969L64.7371 44.5806H65.871C66.5476 44.5806 67.0968 45.1298 67.0968 45.8065V50.7097C67.0968 51.4783 66.9423 52.2272 66.6555 52.948C65.958 53.2238 65.2863 53.5535 64.6427 53.9311L64.6378 50.0257L62.8996 50.8261C62.8739 50.8372 60.4247 51.9355 54.8387 51.9355C49.2527 51.9355 46.8035 50.8372 46.7888 50.831L45.0323 49.9889ZM47.4839 57.7912V53.6148C48.9414 53.9814 51.3452 54.3871 54.8387 54.3871C58.3323 54.3871 60.7361 53.9814 62.1935 53.6148V55.7171C59.65 58.013 57.8971 61.1744 57.4313 64.6606C56.5977 64.9781 55.7299 65.1472 54.8387 65.1472C50.7825 65.146 47.4839 61.8474 47.4839 57.7912ZM49.6192 70.3912L52.6445 72.6602L49.1301 74.7698L46.7864 70.8644L49.6192 70.3912ZM50.0789 87.4839H43.8065V83.8065H41.3548V87.4839H36.4516V79.8557C36.4516 75.6426 39.4671 72.0828 43.6214 71.3915L44.1877 71.2971L48.2892 78.1334L49.797 77.2288L51.1135 79.2035L50.0789 87.4839ZM52.5489 87.4839L53.6583 78.6029L51.9005 75.9662L54.8387 74.2035L57.7757 75.965L56.0179 78.6017L57.1273 87.4839H52.5489ZM67.2255 109.548H58.5161V103.419H56.0645V109.548H51.1613V100.188C51.1613 96.1687 53.8961 92.7303 57.8125 91.8281L60.3634 91.2397L65.4995 98.9427L66.9583 98.0675L68.2809 100.051L67.2255 109.548ZM74.3082 109.548H69.693L70.8171 99.433L69.0642 96.8037L72 95.0422L74.937 96.8037L73.1841 99.433L74.3082 109.548ZM92.8387 100.188V109.548H87.9355V103.419H85.4839V109.548H76.7745L75.7191 100.051L77.0417 98.0675L78.5005 98.9427L83.6366 91.2397L86.1875 91.8281C90.1039 92.7303 92.8387 96.1687 92.8387 100.188ZM107.548 87.4839H102.645V83.8065H100.194V87.4839H79.3548V84.651C80.7388 83.4081 81.8065 81.8243 82.4255 80.0285L89.1613 86.7656L100.299 75.6291L99.4188 71.2309L100.379 71.3915C104.533 72.0841 107.548 75.6438 107.548 79.8557V87.4839Z" fill="#00015B"/>
</g>
<defs>
<clipPath id="clip0_401_275">
<rect width="76" height="76" fill="white" transform="translate(34 36)"/>
</clipPath>
</defs>
</svg>
