<svg width="99" height="99" viewBox="0 0 99 99" fill="none" xmlns="http://www.w3.org/2000/svg">
<rect x="3.53551" y="49.3224" width="65" height="65" rx="7.5" transform="rotate(-44.7822 3.53551 49.3224)" fill="white"/>
<rect x="3.53551" y="49.3224" width="65" height="65" rx="7.5" transform="rotate(-44.7822 3.53551 49.3224)" stroke="#FDCA30" stroke-width="5"/>
<g clip-path="url(#clip0_401_681)">
<path d="M69 30.0004H30V68.0004H69V30.0004Z" fill="white" fill-opacity="0.01"/>
<path d="M49.5001 33.1673L53.7684 36.201L59.0516 36.1912L60.6746 41.0901L64.9547 44.1079L63.3126 49.0007L64.9547 53.8934L60.6746 56.9113L59.0516 61.8101L53.7684 61.8003L49.5001 64.834L45.2318 61.8003L39.9486 61.8101L38.3255 56.9113L34.0454 53.8934L35.6876 49.0007L34.0454 44.1079L38.3255 41.0901L39.9486 36.1912L45.2318 36.201L49.5001 33.1673Z" stroke="#00015B" stroke-width="3" stroke-linecap="round" stroke-linejoin="round"/>
<path d="M43.8125 49.0007L47.875 52.959L56 45.0423" stroke="#00015B" stroke-width="2" stroke-linecap="round" stroke-linejoin="round"/>
</g>
<defs>
<clipPath id="clip0_401_681">
<rect width="39" height="38" fill="white" transform="translate(30 30.0004)"/>
</clipPath>
</defs>
</svg>
