<svg width="144" height="147" viewBox="0 0 144 147" fill="none" xmlns="http://www.w3.org/2000/svg">
<rect x="2" y="2" width="140" height="143" rx="70" fill="white"/>
<rect x="2" y="2" width="140" height="143" rx="70" stroke="#00015B" stroke-width="4"/>
<path d="M75.9 86.1504H68.1C67.3825 86.1504 66.8 86.6656 66.8 87.3003C66.8 87.9351 67.3825 88.4503 68.1 88.4503H75.9C76.6175 88.4503 77.1999 87.9351 77.1999 87.3003C77.1999 86.6656 76.6175 86.1504 75.9 86.1504Z" fill="#00015B"/>
<path d="M105.799 40.1504H38.2013C35.3334 40.1504 33 42.2147 33 44.7516V82.7003C33 83.3351 33.5824 83.8503 34.2999 83.8503H109.7C110.417 83.8503 111 83.3351 111 82.7003V44.7516C111 42.2147 108.667 40.1504 105.799 40.1504ZM108.4 81.5504H35.6001V44.7516C35.6001 43.4819 36.7675 42.4504 38.2013 42.4504H105.799C107.233 42.4504 108.4 43.4819 108.4 44.7516V81.5504Z" fill="#00015B"/>
<path d="M109.7 81.5503H34.2999C33.5824 81.5503 33 82.0656 33 82.7003V88.4491C33 90.9861 35.3334 93.0503 38.2013 93.0503H105.799C108.667 93.0503 111 90.9861 111 88.4491L111 82.7003C111 82.0656 110.418 81.5503 109.7 81.5503ZM108.4 88.4492C108.4 89.7189 107.233 90.7504 105.799 90.7504H38.2013C36.7675 90.7504 35.6001 89.7189 35.6001 88.4492V83.8504H108.4L108.4 88.4492Z" fill="#00015B"/>
<path d="M104.5 44.7504H39.5C38.7825 44.7504 38.2001 45.2657 38.2001 45.9004V82.7004C38.2001 83.3352 38.7825 83.8504 39.5 83.8504H104.5C105.218 83.8504 105.8 83.3352 105.8 82.7004V45.9004C105.8 45.2657 105.218 44.7504 104.5 44.7504ZM103.2 81.5504H40.8V47.0504H103.2V81.5504Z" fill="#00015B"/>
<path d="M88.8999 99.9505H55.1C52.9498 99.9505 51.2 101.498 51.2 103.4C51.2 105.303 52.9498 106.85 55.1 106.85H88.9001C91.0502 106.85 92.8001 105.303 92.8001 103.4C92.8001 101.498 91.0501 99.9505 88.8999 99.9505ZM88.8999 104.55H55.1C54.3825 104.55 53.8001 104.034 53.8001 103.4C53.8001 102.767 54.3825 102.251 55.1 102.251H88.9001C89.6176 102.251 90.2 102.767 90.2 103.4C90.2 104.034 89.6176 104.55 88.8999 104.55Z" fill="#00015B"/>
<path d="M86.2999 99.9505C81.9865 99.9505 79.7999 97.2422 79.7999 91.9005C79.7999 91.2658 79.2175 90.7506 78.5 90.7506H65.5C64.7825 90.7506 64.2001 91.2658 64.2001 91.9005C64.2001 97.2422 62.0135 99.9505 57.7 99.9505C56.9825 99.9505 56.4001 100.466 56.4001 101.1C56.4001 101.735 56.9825 102.25 57.7 102.25H86.2999C87.0175 102.25 87.5999 101.735 87.5999 101.1C87.5999 100.466 87.0175 99.9505 86.2999 99.9505ZM64.0322 99.9505C65.6325 98.3819 66.5749 96.0462 66.7648 93.0505H77.2363C77.4247 96.0462 78.3673 98.3819 79.9688 99.9505H64.0322Z" fill="#00015B"/>
<path d="M95.1191 74.0336L91.981 71.2576L93.7269 69.7132C94.0506 69.4268 94.1805 69.0105 94.0687 68.6183C93.9569 68.2262 93.6202 67.9157 93.1821 67.7984L80.1821 64.3484C79.7233 64.2265 79.228 64.338 78.89 64.6371C78.5507 64.9361 78.4259 65.3753 78.5636 65.7802L82.4636 77.2801C82.595 77.6688 82.9472 77.9666 83.3905 78.0655C83.8324 78.1622 84.3044 78.0494 84.6281 77.7631L86.4663 76.1358L89.6044 78.9131C89.8476 79.1292 90.1791 79.25 90.5235 79.25C90.868 79.25 91.1995 79.1292 91.4426 78.9131L95.119 75.6597C95.6273 75.2101 95.6273 74.4833 95.1191 74.0336ZM90.5235 76.474L87.6662 73.9451C87.3347 73.6518 86.9005 73.5058 86.4663 73.5058C86.0308 73.5058 85.5966 73.6529 85.2665 73.9439L84.3279 74.7742L81.7473 67.1646L90.3494 69.4474L89.3432 70.3375C89.0662 70.5836 88.9142 70.9103 88.9142 71.2576C88.9142 71.6061 89.0676 71.9349 89.3458 72.1787L92.3617 74.8467L90.5235 76.474Z" fill="#00015B"/>
<path d="M87.5998 49.3496H51.1999C50.4823 49.3496 49.8999 49.8648 49.8999 50.4996V56.2496C49.8999 56.8844 50.4823 57.3996 51.1999 57.3996H87.5998C88.3173 57.3996 88.8998 56.8844 88.8998 56.2496V50.4996C88.8998 49.8648 88.3173 49.3496 87.5998 49.3496ZM86.2999 55.0997H52.4998V51.6497H86.2999V55.0997Z" fill="#00015B"/>
<path d="M66.8001 61.9997H56.4C55.6825 61.9997 55.1001 62.5149 55.1001 63.1497V67.7496C55.1001 68.3844 55.6825 68.8996 56.4 68.8996H66.8001C67.5176 68.8996 68.1 68.3844 68.1 67.7496V63.1497C68.1 62.5149 67.5176 61.9997 66.8001 61.9997ZM65.5 66.5997H57.7V64.2996H65.5V66.5997Z" fill="#00015B"/>
<path d="M87.5998 49.3496H51.1999C50.4823 49.3496 49.8999 49.8648 49.8999 50.4996V72.3495C49.8999 72.9843 50.4823 73.4995 51.1999 73.4995H82.1477C82.5598 73.4995 82.9459 73.3282 83.1904 73.036C83.4361 72.744 83.5115 72.3668 83.3931 72.0183L81.7474 67.1641L87.2269 68.6189C87.6208 68.7236 88.0472 68.6569 88.376 68.4396C88.7061 68.2234 88.8999 67.8807 88.8999 67.5172L88.8998 50.4996C88.8998 49.8648 88.3173 49.3496 87.5998 49.3496ZM86.2999 65.9717L80.1807 64.3479C79.7218 64.226 79.2265 64.3376 78.8885 64.6366C78.5492 64.9367 78.4244 65.3749 78.5622 65.7809L80.4003 71.1997H52.4998V51.6497H86.2999V65.9717Z" fill="#00015B"/>
</svg>
