<svg width="414" height="452" viewBox="0 0 414 452" fill="none" xmlns="http://www.w3.org/2000/svg">
<g opacity="0.3">
<rect x="56" y="76" width="44" height="376" rx="5" fill="#FDCA30"/>
<path d="M75.3463 6.19901C77.3267 3.24336 81.6733 3.24335 83.6537 6.19901L143.134 94.9667C145.36 98.2887 142.979 102.75 138.98 102.75H20.02C16.0212 102.75 13.6403 98.2887 15.8663 94.9667L75.3463 6.19901Z" fill="#FDCA30"/>
</g>
<g opacity="0.3">
<rect x="205" y="76" width="44" height="376" rx="5" fill="#FDCA30"/>
<path d="M224.346 6.19901C226.327 3.24336 230.673 3.24335 232.654 6.19901L292.134 94.9667C294.36 98.2887 291.979 102.75 287.98 102.75H169.02C165.021 102.75 162.64 98.2887 164.866 94.9667L224.346 6.19901Z" fill="#FDCA30"/>
</g>
<g opacity="0.3">
<rect x="353" y="76" width="44" height="376" rx="5" fill="#FDCA30"/>
<path d="M372.346 6.19901C374.327 3.24336 378.673 3.24335 380.654 6.19901L440.134 94.9667C442.36 98.2887 439.979 102.75 435.98 102.75H317.02C313.021 102.75 310.64 98.2887 312.866 94.9667L372.346 6.19901Z" fill="#FDCA30"/>
</g>
</svg>
