<svg width="66" height="66" viewBox="0 0 66 66" fill="none" xmlns="http://www.w3.org/2000/svg">
<path d="M4.125 25.0249C4.125 17.7093 4.125 14.0515 5.54872 11.2572C6.80107 8.79939 8.79939 6.80107 11.2572 5.54872C14.0515 4.125 17.7093 4.125 25.0249 4.125H40.9751C48.2908 4.125 51.9486 4.125 54.7427 5.54872C57.2006 6.80107 59.1989 8.79939 60.4513 11.2572C61.875 14.0515 61.875 17.7093 61.875 25.0249V40.9751C61.875 48.2908 61.875 51.9486 60.4513 54.7427C59.1989 57.2006 57.2006 59.1989 54.7427 60.4513C51.9486 61.875 48.2908 61.875 40.9751 61.875H25.0249C17.7093 61.875 14.0515 61.875 11.2572 60.4513C8.79939 59.1989 6.80107 57.2006 5.54872 54.7427C4.125 51.9486 4.125 48.2908 4.125 40.9751V25.0249Z" fill="#330000"/>
<path d="M32.1104 40.4182H23.1614L21.3406 46.2194C21.2901 46.435 21.0917 46.5876 20.8757 46.5769H16.343C16.0845 46.5769 15.9942 46.4313 16.0719 46.1398L23.8199 23.2531C23.8975 23.0147 23.975 22.7432 24.0524 22.4386C24.1538 21.9083 24.2056 21.3696 24.2075 20.8294C24.1852 20.6698 24.3254 20.5288 24.4785 20.5512H30.6383C30.8188 20.5512 30.9219 20.6174 30.9481 20.7498L39.7424 46.1796C39.8198 46.4447 39.7424 46.5771 39.51 46.5769H34.4736C34.297 46.5971 34.1283 46.476 34.0862 46.2988L32.1104 40.4182ZM24.556 35.4117H30.6771C29.6714 31.9752 28.5365 28.5838 27.6166 25.1207C26.6241 28.5898 25.5413 32.0449 24.556 35.4117Z" fill="#FF9A00"/>
<path d="M44.9719 24.762C44.5767 24.7783 44.1828 24.7088 43.8154 24.5582C43.4483 24.4076 43.1163 24.1791 42.8411 23.8879C42.5668 23.5839 42.3535 23.2275 42.2139 22.8387C42.0743 22.4501 42.011 22.037 42.0275 21.623C42.0134 21.2132 42.0838 20.8051 42.2339 20.425C42.3843 20.0451 42.6109 19.7018 42.8993 19.4178C43.1847 19.1367 43.5217 18.9165 43.8909 18.7698C44.2599 18.6232 44.6536 18.5531 45.0492 18.5635C45.9792 18.5635 46.7087 18.8483 47.2382 19.4178C47.5055 19.7137 47.7132 20.0609 47.8495 20.4393C47.9856 20.8176 48.0479 21.22 48.0322 21.623C48.0485 22.0384 47.9831 22.4532 47.84 22.8422C47.6971 23.2312 47.4791 23.5868 47.1994 23.8879C46.9071 24.1834 46.5582 24.4136 46.1749 24.5642C45.7915 24.7145 45.3819 24.782 44.9719 24.762ZM42.2987 46.1786V27.1858C42.2987 26.9474 42.4016 26.8282 42.6087 26.8282H47.3739C47.5801 26.8282 47.6835 26.9474 47.6837 27.1858V46.1786C47.6837 46.4438 47.5803 46.5762 47.3739 46.576H42.6475C42.415 46.576 42.2987 46.4436 42.2987 46.1786Z" fill="#FF9A00"/>
</svg>
