<svg width="44" height="44" viewBox="0 0 44 44" fill="none" xmlns="http://www.w3.org/2000/svg">
<path d="M22 26C23.0609 26 24.0783 25.5786 24.8284 24.8284C25.5786 24.0783 26 23.0609 26 22C26 20.9391 25.5786 19.9217 24.8284 19.1716C24.0783 18.4214 23.0609 18 22 18C20.9391 18 19.9217 18.4214 19.1716 19.1716C18.4214 19.9217 18 20.9391 18 22C18 23.0609 18.4214 24.0783 19.1716 24.8284C19.9217 25.5786 20.9391 26 22 26Z" stroke="#FDCA30" stroke-width="2" stroke-linecap="round" stroke-linejoin="round"/>
<path d="M13 26V18C13 16.6739 13.5268 15.4021 14.4645 14.4645C15.4021 13.5268 16.6739 13 18 13H26C27.3261 13 28.5979 13.5268 29.5355 14.4645C30.4732 15.4021 31 16.6739 31 18V26C31 27.3261 30.4732 28.5979 29.5355 29.5355C28.5979 30.4732 27.3261 31 26 31H18C16.6739 31 15.4021 30.4732 14.4645 29.5355C13.5268 28.5979 13 27.3261 13 26Z" stroke="#FDCA30" stroke-width="2"/>
<path d="M27.5 16.509L27.51 16.498" stroke="#FDCA30" stroke-width="2" stroke-linecap="round" stroke-linejoin="round"/>
</svg>
