<svg width="75" height="66" viewBox="0 0 75 66" fill="none" xmlns="http://www.w3.org/2000/svg">
<path d="M40.0781 33.0006C40.0781 27.6835 44.8547 23.377 50.7422 23.377C56.6344 23.377 61.4062 27.6793 61.4062 33.0006C61.4062 38.3177 56.6344 42.6242 50.7422 42.6242C44.8594 42.6242 40.0781 38.3218 40.0781 33.0006Z" fill="#1ABCFE"/>
<path d="M18.75 52.2508C18.75 46.9337 23.5266 42.623 29.4141 42.623H40.0781V52.2508C40.0781 57.5638 35.3016 61.8744 29.4141 61.8744C23.5266 61.8744 18.75 57.5638 18.75 52.2508Z" fill="#0ACF83"/>
<path d="M40.0781 4.125V23.3764H50.7422C56.6344 23.3764 61.4062 19.0658 61.4062 13.7486C61.4062 8.43562 56.6344 4.125 50.7422 4.125H40.0781Z" fill="#FF7262"/>
<path d="M18.75 13.7486C18.75 19.0658 23.5266 23.3764 29.4141 23.3764H40.0781V4.125H29.4141C23.5266 4.125 18.75 8.43562 18.75 13.7486Z" fill="#F24E1E"/>
<path d="M18.75 33.0006C18.75 38.3177 23.5266 42.6242 29.4141 42.6242H40.0781V23.377H29.4141C23.5266 23.377 18.75 27.6793 18.75 33.0006Z" fill="#A259FF"/>
</svg>
