<svg width="144" height="147" viewBox="0 0 144 147" fill="none" xmlns="http://www.w3.org/2000/svg">
<rect x="2" y="2" width="140" height="143" rx="70" fill="white"/>
<rect x="2" y="2" width="140" height="143" rx="70" stroke="#00015B" stroke-width="4"/>
<g clip-path="url(#clip0_401_264)">
<path d="M47.9229 90.2656H41.7385C39.8439 90.2656 38.3022 91.6873 38.3022 93.4346V111.831C38.3022 113.578 39.8436 115 41.7385 115H47.9229C49.8175 115 51.3592 113.578 51.3592 111.831V93.4346C51.3592 91.6873 49.8178 90.2656 47.9229 90.2656ZM47.7104 111.635H41.9513V93.6303H47.7104V111.635Z" fill="#00015B"/>
<path d="M63.7562 93.2051H57.5718C55.6772 93.2051 54.1353 94.6265 54.1353 96.3741V111.832C54.1353 113.579 55.6769 115.001 57.5718 115.001H63.7562C65.6509 115.001 67.1925 113.579 67.1925 111.832V96.3741C67.1925 94.6265 65.6512 93.2051 63.7562 93.2051ZM63.5437 111.635H57.7844V96.5698H63.5437V111.635Z" fill="#00015B"/>
<path d="M79.59 96.8008H73.4053C71.5106 96.8008 69.969 98.2222 69.969 99.9698V111.831C69.969 113.578 71.5103 115 73.4053 115H79.59C81.4846 115 83.0262 113.578 83.0262 111.831V99.9698C83.0259 98.2222 81.4846 96.8008 79.59 96.8008ZM79.3771 111.635H73.6178V100.166H79.3771V111.635Z" fill="#00015B"/>
<path d="M95.8819 91.2129H89.6975C87.8029 91.2129 86.261 92.6346 86.261 94.3819V111.831C86.261 113.578 87.8026 115 89.6975 115H95.8819C97.7766 115 99.3182 113.578 99.3182 111.831V94.3819C99.3182 92.6343 97.7766 91.2129 95.8819 91.2129ZM95.6694 111.635H89.9101V94.5776H95.6694V111.635Z" fill="#00015B"/>
<path d="M108.601 46.6762L94.2929 33.4814C93.2573 32.5261 91.8798 32 90.4148 32C88.9498 32 87.5727 32.5261 86.5368 33.4814L83.553 36.2337C82.517 37.1891 81.9463 38.4591 81.9463 39.8102C81.9463 41.1612 82.517 42.4312 83.553 43.3866L97.8605 56.5813C98.8962 57.5367 100.274 58.0628 101.739 58.0628C103.203 58.0628 104.581 57.5367 105.616 56.5813L108.601 53.829C110.739 51.8572 110.739 48.6483 108.601 46.6762ZM106.021 51.4494L103.036 54.2017C102.689 54.5214 102.229 54.6975 101.738 54.6975C101.248 54.6975 100.787 54.5214 100.44 54.2017L86.1327 41.007C85.786 40.6873 85.5948 40.2622 85.5948 39.8099C85.5948 39.3576 85.786 38.9327 86.133 38.6128L89.1171 35.8605C89.4637 35.5408 89.9244 35.3647 90.4148 35.3647C90.9053 35.3647 91.3663 35.5408 91.7132 35.8605L106.021 49.0552C106.736 49.7156 106.736 50.7896 106.021 51.4494Z" fill="#00015B"/>
<path d="M80.0524 41.8408C80.0508 41.8391 80.0487 41.838 80.0469 41.8366C79.9876 41.7822 79.9234 41.732 79.8559 41.6855C79.8447 41.6776 79.8331 41.6703 79.8219 41.6628C79.6869 41.5739 79.5379 41.5012 79.3767 41.448C79.3603 41.4426 79.3442 41.4376 79.3275 41.4325C79.2487 41.409 79.1681 41.3882 79.0842 41.3742L62.5366 38.6421L62.5348 38.6418C58.9502 37.9857 55.3026 38.6505 52.258 40.5161C49.2015 42.389 47.1192 45.2476 46.394 48.5649L45.643 51.9989C44.7953 55.8776 47.5273 59.6694 51.7331 60.4515C53.7707 60.8298 55.8456 60.4546 57.577 59.3941C59.308 58.3333 60.4878 56.7141 60.8986 54.8353L61.3267 52.8761L68.4066 53.447L87.4193 70.9806C87.4196 70.9812 87.4202 70.9817 87.4205 70.982L90.8747 74.1676C91.1806 74.4497 91.349 74.8248 91.349 75.2239C91.349 75.6229 91.1806 75.9981 90.8747 76.2802C90.2431 76.8624 89.2166 76.8626 88.5848 76.281C88.5845 76.2808 88.5842 76.2805 88.5839 76.2802L79.3311 67.7471C79.1529 67.5828 78.9471 67.4597 78.7275 67.3775C78.508 67.2954 78.2745 67.2542 78.041 67.2542C77.6907 67.2542 77.3407 67.3464 77.0372 67.5312C76.936 67.5929 76.8402 67.6647 76.7511 67.7468C76.0384 68.4039 76.0384 69.4692 76.7508 70.1262L86.0039 78.6593C86.3097 78.9414 86.4782 79.3166 86.4782 79.7156C86.4782 80.1146 86.3097 80.4898 86.0036 80.7722C85.6977 81.0543 85.2911 81.2097 84.8584 81.2097C84.4264 81.2097 84.0201 81.0546 83.7139 80.773C83.7136 80.7728 83.7133 80.7725 83.713 80.7722L74.4603 72.2391C74.2821 72.0748 74.0762 71.9517 73.8567 71.8695C73.6372 71.7874 73.4036 71.7464 73.1701 71.7464C72.8198 71.7464 72.4699 71.8387 72.1664 72.0238C72.0651 72.0855 71.9694 72.1572 71.8803 72.2394C71.7021 72.4037 71.5686 72.5936 71.4795 72.796C71.2122 73.4037 71.346 74.126 71.88 74.6187L81.133 83.1518C81.4389 83.4339 81.6074 83.8091 81.6074 84.2082C81.6074 84.6072 81.4389 84.9821 81.133 85.2645C80.8268 85.5466 80.42 85.7022 79.9873 85.7022C79.5546 85.7022 79.1481 85.5469 78.8419 85.2645L69.5888 76.7314C68.8767 76.0744 67.7213 76.0744 67.0088 76.7314C66.2964 77.3884 66.2964 78.4537 67.0091 79.1107L76.2619 87.6435C76.8934 88.2262 76.8934 89.1741 76.2616 89.7565C75.9557 90.0386 75.5491 90.1939 75.1165 90.1939C74.6835 90.1939 74.2769 90.0386 73.9707 89.7565L36.9099 55.5773C36.1978 54.9203 35.042 54.9203 34.3302 55.5773C33.6175 56.2343 33.6175 57.2996 34.3302 57.9567L38.6537 61.9439L43.2354 66.1692L40.659 68.5449C38.8967 70.1705 38.8967 72.8154 40.6593 74.4412L41.7169 75.4165C42.4147 76.0601 43.3017 76.4622 44.261 76.5898C44.3963 77.4479 44.8162 78.2745 45.5305 78.9335L46.5877 79.9085C47.285 80.5515 48.171 80.9539 49.1294 81.0815C49.2681 81.9654 49.7044 82.7825 50.4016 83.4255L51.4589 84.4005C52.1561 85.0435 53.0421 85.4459 54.0006 85.5735C54.1392 86.4574 54.5756 87.2745 55.2728 87.9175L56.33 88.8925C57.1841 89.6802 58.3192 90.1137 59.527 90.1137C60.7347 90.1137 61.8698 89.6802 62.7242 88.8925L65.3 86.5168L71.3919 92.135C72.3868 93.0528 73.7101 93.5581 75.1177 93.5581C76.5249 93.5581 77.8479 93.0528 78.8434 92.1347C79.7738 91.2763 80.2783 90.174 80.3656 89.049C81.6305 88.9668 82.8084 88.4778 83.7136 87.6427C84.6188 86.8082 85.1488 85.7227 85.2385 84.5567C86.5025 84.4743 87.6799 83.9852 88.5845 83.1507C89.4903 82.3156 90.0203 81.2293 90.1094 80.0628C91.3293 79.9823 92.5249 79.5168 93.4556 78.6584C94.4508 77.7409 94.9987 76.5205 94.9987 75.2228C94.9987 73.9247 94.4508 72.7046 93.4559 71.7871L91.2919 69.7911L99.5366 62.1876C100.249 61.5306 100.249 60.4653 99.5366 59.8082L80.0524 41.8408ZM43.2393 70.9245L45.6539 68.698L47.9448 70.8107L45.5302 73.0375C45.3082 73.2422 45.0485 73.273 44.9138 73.273C44.7788 73.273 44.5192 73.2425 44.2969 73.0375L43.2397 72.0625C42.8994 71.7484 42.8994 71.238 43.2393 70.9245ZM48.1102 75.4165L50.5248 73.19L52.8156 75.3027L50.4013 77.5292C50.1791 77.7342 49.9194 77.765 49.7844 77.765C49.6497 77.765 49.39 77.7345 49.1677 77.5295L48.1105 76.5545C47.7702 76.2407 47.7702 75.73 48.1102 75.4165ZM52.7259 80.4775C52.7259 80.353 52.7591 80.1138 52.9813 79.9088L55.3959 77.6823L57.6868 79.795L55.2725 82.0215C55.0502 82.2264 54.7905 82.2573 54.6555 82.2573C54.5208 82.2573 54.2611 82.2267 54.0389 82.0217L52.9813 81.0465C52.7591 80.8412 52.7259 80.602 52.7259 80.4775ZM60.1436 86.5135C59.9213 86.7184 59.6617 86.7493 59.5267 86.7493C59.392 86.7493 59.1323 86.7187 58.91 86.5137L57.8525 85.5384C57.6305 85.3335 57.5971 85.0943 57.5971 84.9698C57.5971 84.8453 57.6302 84.6061 57.8525 84.4011L60.2671 82.1743L62.5576 84.2869L60.1436 86.5135ZM88.711 67.4126L70.5171 50.6341C70.214 50.3543 69.8135 50.1821 69.386 50.1479L60.0196 49.3927C59.9657 49.3882 59.9122 49.3863 59.8593 49.3863C58.9991 49.3863 58.245 49.9454 58.0723 50.7365L57.3216 54.1702C57.1036 55.1679 56.4772 56.028 55.5577 56.591C54.6385 57.1544 53.5369 57.3538 52.4541 57.1527C50.2204 56.7374 48.7697 54.7237 49.2197 52.6638L49.9705 49.2301C50.5029 46.7938 52.0323 44.6946 54.277 43.3192C56.5216 41.9437 59.2126 41.4569 61.8543 41.9479C61.8674 41.9502 61.8801 41.9527 61.8932 41.9547L77.8771 44.5937L95.6656 60.9986L88.711 67.4126Z" fill="#00015B"/>
</g>
<defs>
<clipPath id="clip0_401_264">
<rect width="90" height="83" fill="white" transform="translate(27 32)"/>
</clipPath>
</defs>
</svg>
