<svg width="39" height="37" viewBox="0 0 39 37" fill="none" xmlns="http://www.w3.org/2000/svg">
<rect y="0.5" width="36" height="36" rx="18" fill="#F8F8F8"/>
<path fill-rule="evenodd" clip-rule="evenodd" d="M11.3134 13.3458C11.2985 13.1808 11.3181 13.0144 11.3711 12.8574C11.424 12.7004 11.509 12.5561 11.6208 12.4338C11.7325 12.3115 11.8686 12.2137 12.0202 12.1469C12.1718 12.08 12.3356 12.0454 12.5013 12.0454H26.964C27.1427 12.0455 27.319 12.0857 27.48 12.163C27.641 12.2403 27.7826 12.3528 27.8944 12.4922C28.0061 12.6316 28.0851 12.7943 28.1256 12.9683C28.166 13.1423 28.1669 13.3231 28.1281 13.4975L26.9061 19.0058C26.6959 19.9524 26.1691 20.799 25.4127 21.4057C24.6563 22.0124 23.7156 22.343 22.7459 22.3428H16.019C14.9553 22.3429 13.9301 21.9451 13.1448 21.2276C12.3595 20.5101 11.871 19.5249 11.7753 18.4655L11.3134 13.3458ZM13.0603 13.7497L13.4728 18.3121C13.5303 18.948 13.8236 19.5394 14.2951 19.9699C14.7667 20.4005 15.3822 20.639 16.0207 20.6385H22.7476C23.3293 20.6384 23.8935 20.4399 24.3471 20.0758C24.8008 19.7117 25.1167 19.2038 25.2427 18.6359L26.3283 13.7497H13.0603Z" fill="#00015B"/>
<path fill-rule="evenodd" clip-rule="evenodd" d="M7.78906 9.18516C7.78906 8.95915 7.87884 8.74241 8.03865 8.5826C8.19846 8.42279 8.41521 8.33301 8.64121 8.33301H11.6306C11.839 8.33322 12.0401 8.40982 12.1959 8.54832C12.3517 8.68683 12.4513 8.87762 12.4759 9.0846L13.161 14.8809C13.1875 15.1056 13.1236 15.3315 12.9834 15.5091C12.8433 15.6866 12.6383 15.8012 12.4137 15.8277C12.189 15.8541 11.9631 15.7902 11.7855 15.6501C11.608 15.5099 11.4934 15.305 11.4669 15.0803L10.8721 10.0356H8.64121C8.41521 10.0356 8.19846 9.94582 8.03865 9.78602C7.87884 9.62621 7.78906 9.41116 7.78906 9.18516ZM15.4584 26.7957C15.6844 26.7957 15.9012 26.7059 16.061 26.5461C16.2208 26.3863 16.3106 26.1696 16.3106 25.9436C16.3106 25.7176 16.2208 25.5008 16.061 25.341C15.9012 25.1812 15.6844 25.0914 15.4584 25.0914C15.2324 25.0914 15.0157 25.1812 14.8559 25.341C14.696 25.5008 14.6063 25.7176 14.6063 25.9436C14.6063 26.1696 14.696 26.3863 14.8559 26.5461C15.0157 26.7059 15.2324 26.7957 15.4584 26.7957ZM15.4584 28.5C15.7941 28.5 16.1266 28.4339 16.4367 28.3054C16.7469 28.1769 17.0287 27.9886 17.2661 27.7512C17.5035 27.5138 17.6918 27.232 17.8203 26.9219C17.9487 26.6117 18.0149 26.2793 18.0149 25.9436C18.0149 25.6078 17.9487 25.2754 17.8203 24.9652C17.6918 24.6551 17.5035 24.3733 17.2661 24.1359C17.0287 23.8985 16.7469 23.7102 16.4367 23.5817C16.1266 23.4532 15.7941 23.3871 15.4584 23.3871C14.7804 23.3871 14.1302 23.6564 13.6507 24.1359C13.1713 24.6153 12.902 25.2655 12.902 25.9436C12.902 26.6216 13.1713 27.2718 13.6507 27.7512C14.1302 28.2307 14.7804 28.5 15.4584 28.5ZM23.2334 26.7957C23.4594 26.7957 23.6762 26.7059 23.836 26.5461C23.9958 26.3863 24.0856 26.1696 24.0856 25.9436C24.0856 25.7176 23.9958 25.5008 23.836 25.341C23.6762 25.1812 23.4594 25.0914 23.2334 25.0914C23.0074 25.0914 22.7907 25.1812 22.6309 25.341C22.4711 25.5008 22.3813 25.7176 22.3813 25.9436C22.3813 26.1696 22.4711 26.3863 22.6309 26.5461C22.7907 26.7059 23.0074 26.7957 23.2334 26.7957ZM23.2334 28.5C23.5692 28.5 23.9016 28.4339 24.2118 28.3054C24.5219 28.1769 24.8037 27.9886 25.0411 27.7512C25.2785 27.5138 25.4668 27.232 25.5953 26.9219C25.7238 26.6117 25.7899 26.2793 25.7899 25.9436C25.7899 25.6078 25.7238 25.2754 25.5953 24.9652C25.4668 24.6551 25.2785 24.3733 25.0411 24.1359C24.8037 23.8985 24.5219 23.7102 24.2118 23.5817C23.9016 23.4532 23.5692 23.3871 23.2334 23.3871C22.5554 23.3871 21.9052 23.6564 21.4258 24.1359C20.9463 24.6153 20.677 25.2655 20.677 25.9436C20.677 26.6216 20.9463 27.2718 21.4258 27.7512C21.9052 28.2307 22.5554 28.5 23.2334 28.5Z" fill="#00015B"/>
<rect x="21.5" y="0.5" width="17" height="17" rx="8.5" fill="#F55157"/>
<rect x="21.5" y="0.5" width="17" height="17" rx="8.5" stroke="white"/>
<path d="M27.79 11.38C27.79 11.3267 27.8067 11.28 27.84 11.24L30.29 8.12C30.4433 7.92667 30.56 7.73667 30.64 7.55C30.7267 7.35667 30.77 7.15333 30.77 6.94C30.77 6.63333 30.6733 6.38 30.48 6.18C30.2933 5.97333 30.0333 5.87 29.7 5.87C29.3733 5.87 29.12 5.96 28.94 6.14C28.76 6.32 28.6433 6.56333 28.59 6.87C28.5767 6.93667 28.54 6.96333 28.48 6.95L27.87 6.82C27.81 6.8 27.7833 6.76 27.79 6.7C27.81 6.5 27.8667 6.30333 27.96 6.11C28.0533 5.91667 28.18 5.74667 28.34 5.6C28.5 5.44667 28.6933 5.32333 28.92 5.23C29.1533 5.13667 29.42 5.09 29.72 5.09C30.02 5.09 30.2867 5.13667 30.52 5.23C30.7533 5.32333 30.9533 5.45333 31.12 5.62C31.2867 5.78667 31.4133 5.98333 31.5 6.21C31.5867 6.43667 31.63 6.68 31.63 6.94C31.63 7.24667 31.57 7.53 31.45 7.79C31.3367 8.05 31.1767 8.31 30.97 8.57L28.87 11.21V11.22H31.53C31.5967 11.22 31.63 11.2533 31.63 11.32V11.9C31.63 11.9667 31.5967 12 31.53 12H27.89C27.8233 12 27.79 11.9667 27.79 11.9V11.38Z" fill="white"/>
</svg>
