<svg width="66" height="66" viewBox="0 0 66 66" fill="none" xmlns="http://www.w3.org/2000/svg">
<g clip-path="url(#clip0_401_376)">
<path d="M33 66C51.2254 66 66 51.2254 66 33C66 14.7746 51.2254 0 33 0C14.7746 0 0 14.7746 0 33C0 51.2254 14.7746 66 33 66Z" fill="#7D2AE7"/>
<path d="M33 66C51.2254 66 66 51.2254 66 33C66 14.7746 51.2254 0 33 0C14.7746 0 0 14.7746 0 33C0 51.2254 14.7746 66 33 66Z" fill="url(#paint0_radial_401_376)"/>
<path d="M33 66C51.2254 66 66 51.2254 66 33C66 14.7746 51.2254 0 33 0C14.7746 0 0 14.7746 0 33C0 51.2254 14.7746 66 33 66Z" fill="url(#paint1_radial_401_376)"/>
<path d="M33 66C51.2254 66 66 51.2254 66 33C66 14.7746 51.2254 0 33 0C14.7746 0 0 14.7746 0 33C0 51.2254 14.7746 66 33 66Z" fill="url(#paint2_radial_401_376)"/>
<path d="M33 66C51.2254 66 66 51.2254 66 33C66 14.7746 51.2254 0 33 0C14.7746 0 0 14.7746 0 33C0 51.2254 14.7746 66 33 66Z" fill="url(#paint3_radial_401_376)"/>
<path d="M59.321 34.8088C59.2325 34.8088 59.1536 34.8682 59.1144 34.9863C58.5791 36.5099 57.8565 37.4193 57.2622 37.4193C56.9207 37.4193 56.7828 37.0386 56.7828 36.4408C56.7828 34.9502 57.6794 31.7848 58.1257 30.34C58.1785 30.1911 58.2084 30.035 58.2147 29.877C58.2147 29.4567 57.9847 29.2499 57.4168 29.2499C56.8485 29.2499 56.1426 29.4929 55.5055 30.6158C55.2822 29.6242 54.6125 29.1908 53.6767 29.1908C52.5963 29.1908 51.5521 29.8869 50.6917 31.0132C49.8316 32.1394 48.8236 32.5138 48.0618 32.3299C48.6099 30.9935 48.8104 29.992 48.8104 29.2499C48.8104 28.0842 48.2358 27.3815 47.3066 27.3815C45.8911 27.3815 45.0769 28.7311 45.0769 30.1496C45.0769 31.2463 45.5729 32.3759 46.6695 32.9242C45.7532 34.9961 44.4137 36.8712 43.9048 36.8712C43.248 36.8712 43.0541 33.6597 43.0937 31.3612C43.1132 30.0445 43.225 29.9755 43.225 29.575C43.225 29.3484 43.0739 29.1908 42.4796 29.1908C41.0908 29.1908 40.6573 30.3696 40.5948 31.7224C40.5708 32.2353 40.4905 32.7441 40.3551 33.2394C39.7708 35.3146 38.5755 36.8875 37.7939 36.8875C37.4295 36.8875 37.3344 36.5231 37.3344 36.0503C37.3344 34.5594 38.1684 32.6911 38.1684 31.1018C38.1684 29.9296 37.656 29.1908 36.6872 29.1908C35.5513 29.1908 34.0441 30.5469 32.619 33.0818C33.0886 31.1412 33.279 29.2597 31.8934 29.2597C31.5918 29.2644 31.2957 29.3409 31.0298 29.483C30.8393 29.5815 30.7375 29.7588 30.7506 29.9558C30.882 32.0278 29.0826 37.3241 27.3751 37.3241C27.0632 37.3241 26.9154 36.9893 26.9154 36.4442C26.9154 34.9533 27.8053 31.7946 28.2519 30.3466C28.3063 30.189 28.3362 30.024 28.3405 29.8573C28.3405 29.4633 28.0975 29.2597 27.5426 29.2597C26.9319 29.2597 26.2719 29.4929 25.6315 30.6158C25.4083 29.6242 24.7384 29.1908 23.8059 29.1908C22.2724 29.1908 20.5551 30.8129 19.8032 32.9308C18.7951 35.7547 16.7626 38.4802 14.0274 38.4802C11.545 38.4802 10.2348 36.4147 10.2348 33.1541C10.2348 28.4388 13.6957 24.5905 16.2602 24.5905C17.4883 24.5905 18.0727 25.372 18.0727 26.5705C18.0727 28.0218 17.265 28.695 17.265 29.2466C17.265 29.4141 17.4029 29.5815 17.682 29.5815C18.7984 29.5815 20.1086 28.2714 20.1086 26.4851C20.1086 24.6988 18.6605 23.3887 16.0927 23.3887C11.8536 23.3887 7.58496 27.6573 7.58496 33.1245C7.58496 37.4752 9.73243 40.0989 13.4429 40.0989C15.9745 40.0989 18.1877 38.1321 19.3829 35.8301C19.5175 37.7378 20.3811 38.7296 21.6978 38.7296C22.87 38.7296 23.819 38.0334 24.5447 36.8055C24.8238 38.0894 25.5626 38.7198 26.5247 38.7198C27.6279 38.7198 28.5474 38.0202 29.4241 36.7232C29.411 37.7413 29.6441 38.7 30.5274 38.7C30.9444 38.7 31.4435 38.6049 31.5321 38.2405C32.4581 34.3952 34.76 31.2562 35.4627 31.2562C35.6694 31.2562 35.7253 31.4532 35.7253 31.6929C35.7253 32.7371 34.9896 34.878 34.9896 36.2438C34.9896 37.7246 35.617 38.7 36.914 38.7C38.3521 38.7 39.8132 36.9399 40.7886 34.3657C41.0939 36.7694 41.7539 38.7098 42.7818 38.7098C44.049 38.7098 46.2985 36.0468 47.6609 33.223C48.1931 33.292 48.9976 33.2755 49.766 32.7305C49.4408 33.5612 49.247 34.4708 49.247 35.3771C49.247 37.9973 50.4948 38.7296 51.5719 38.7296C52.744 38.7296 53.693 38.0334 54.4186 36.8055C54.6583 37.9119 55.269 38.7164 56.3955 38.7164C58.1553 38.7164 59.6854 36.917 59.6854 35.4393C59.6854 35.0489 59.518 34.8088 59.321 34.8088ZM22.7748 37.2814C22.0623 37.2814 21.7832 36.5623 21.7832 35.4952C21.7832 33.6433 23.0506 30.5436 24.3936 30.5436C24.9781 30.5436 25.2014 31.2365 25.2014 32.0803C25.2014 33.9618 23.9963 37.2814 22.7748 37.2814ZM47.1326 31.7454C46.7088 31.2397 46.5546 30.5502 46.5546 29.9394C46.5546 29.1842 46.8304 28.5472 47.1621 28.5472C47.4935 28.5472 47.5921 28.8723 47.5921 29.3254C47.5921 30.0806 47.3229 31.1905 47.1326 31.7454ZM52.6457 37.2814C51.9363 37.2814 51.6571 36.4574 51.6571 35.4952C51.6571 33.7057 52.9246 30.5436 54.2776 30.5436C54.8619 30.5436 55.072 31.2266 55.072 32.0803C55.072 33.9618 53.8868 37.2814 52.6457 37.2814Z" fill="white"/>
</g>
<defs>
<radialGradient id="paint0_radial_401_376" cx="0" cy="0" r="1" gradientUnits="userSpaceOnUse" gradientTransform="translate(12.7487 58.4972) rotate(-49.416) scale(51.0454)">
<stop stop-color="#6420FF"/>
<stop offset="1" stop-color="#6420FF" stop-opacity="0"/>
</radialGradient>
<radialGradient id="paint1_radial_401_376" cx="0" cy="0" r="1" gradientUnits="userSpaceOnUse" gradientTransform="translate(17.4725 7.50301) rotate(54.703) scale(57.5631)">
<stop stop-color="#00C4CC"/>
<stop offset="1" stop-color="#00C4CC" stop-opacity="0"/>
</radialGradient>
<radialGradient id="paint2_radial_401_376" cx="0" cy="0" r="1" gradientUnits="userSpaceOnUse" gradientTransform="translate(12.7484 58.4968) rotate(-45.1954) scale(50.4275 23.1923)">
<stop stop-color="#6420FF"/>
<stop offset="1" stop-color="#6420FF" stop-opacity="0"/>
</radialGradient>
<radialGradient id="paint3_radial_401_376" cx="0" cy="0" r="1" gradientUnits="userSpaceOnUse" gradientTransform="translate(26.9906 8.89271) rotate(66.52) scale(51.9615 87.0471)">
<stop stop-color="#00C4CC"/>
<stop offset="1" stop-color="#00C4CC" stop-opacity="0"/>
</radialGradient>
<clipPath id="clip0_401_376">
<rect width="66" height="66" fill="white"/>
</clipPath>
</defs>
</svg>
