<svg width="99" height="99" viewBox="0 0 99 99" fill="none" xmlns="http://www.w3.org/2000/svg">
<rect x="2.12131" y="49.317" width="67" height="67" rx="8.5" transform="rotate(-44.7822 2.12131 49.317)" fill="#00015B"/>
<rect x="2.12131" y="49.317" width="67" height="67" rx="8.5" transform="rotate(-44.7822 2.12131 49.317)" stroke="#00015B" stroke-width="3"/>
<path d="M67.0129 41.098L63.6191 47.8093C63.0444 48.9679 62.0931 49.9566 60.8812 50.6549C59.6694 51.3532 58.2493 51.7308 56.7941 51.7418H52.3691V53.3668H48.6191V51.7418H44.1941C42.739 51.7308 41.3189 51.3532 40.107 50.6549C38.8952 49.9566 37.9439 48.9679 37.3691 47.8093L33.9754 41.098C33.757 41.3587 33.633 41.6698 33.6191 41.9918V61.4918C33.6191 61.9227 33.8167 62.3361 34.1683 62.6408C34.5199 62.9456 34.9969 63.1168 35.4941 63.1168H65.4941C65.9914 63.1168 66.4683 62.9456 66.82 62.6408C67.1716 62.3361 67.3691 61.9227 67.3691 61.4918V41.9918C67.3552 41.6698 67.2312 41.3587 67.0129 41.098Z" fill="#00015B"/>
<path d="M48.619 51.7425H44.194C42.7389 51.7316 41.3188 51.3539 40.1069 50.6557C38.8951 49.9574 37.9438 48.9687 37.369 47.81L33.9565 41.0663C34.1288 40.851 34.3586 40.6751 34.6264 40.5534C34.8941 40.4317 35.1918 40.368 35.494 40.3675H65.494C65.7963 40.368 66.094 40.4317 66.3617 40.5534C66.6294 40.6751 66.8592 40.851 67.0315 41.0663L63.619 47.81C63.0443 48.9687 62.093 49.9574 60.8811 50.6557C59.6693 51.3539 58.2492 51.7316 56.794 51.7425H52.369" stroke="#FDCA30" stroke-width="2" stroke-linecap="round" stroke-linejoin="round"/>
<path d="M57.9941 40.3675H42.9941V35.4925C42.9941 35.0616 43.1917 34.6482 43.5433 34.3435C43.8949 34.0388 44.3719 33.8675 44.8691 33.8675H56.1191C56.6164 33.8675 57.0933 34.0388 57.445 34.3435C57.7966 34.6482 57.9941 35.0616 57.9941 35.4925V40.3675ZM67.3691 61.4925V41.9925C67.3691 41.5616 67.1716 41.1482 66.82 40.8435C66.4683 40.5388 65.9914 40.3675 65.4941 40.3675H35.4941C34.9969 40.3675 34.5199 40.5388 34.1683 40.8435C33.8167 41.1482 33.6191 41.5616 33.6191 41.9925V61.4925C33.6191 61.9235 33.8167 62.3368 34.1683 62.6416C34.5199 62.9463 34.9969 63.1175 35.4941 63.1175H65.4941C65.9914 63.1175 66.4683 62.9463 66.82 62.6416C67.1716 62.3368 67.3691 61.9235 67.3691 61.4925ZM52.3691 50.1175H48.6191V53.3675H52.3691V50.1175Z" stroke="#FDCA30" stroke-width="2" stroke-linecap="round" stroke-linejoin="round"/>
</svg>
