<svg width="446" height="580" viewBox="0 0 446 580" fill="none" xmlns="http://www.w3.org/2000/svg">
<g opacity="0.3">
<rect x="56" y="152" width="44" height="418" rx="5" fill="#FDCA30"/>
<path d="M75.3463 100.199C77.3267 97.2434 81.6733 97.2434 83.6537 100.199L143.134 188.967C145.36 192.289 142.979 196.75 138.98 196.75H20.02C16.0212 196.75 13.6403 192.289 15.8663 188.967L75.3463 100.199Z" fill="#FDCA30"/>
</g>
<g opacity="0.3">
<rect x="193" y="76" width="44" height="376" rx="5" fill="#FDCA30"/>
<path d="M212.346 6.19901C214.327 3.24336 218.673 3.24335 220.654 6.19901L280.134 94.9667C282.36 98.2887 279.979 102.75 275.98 102.75H157.02C153.021 102.75 150.64 98.2887 152.866 94.9667L212.346 6.19901Z" fill="#FDCA30"/>
</g>
<g opacity="0.3">
<rect x="343" y="152" width="44" height="428" rx="5" fill="#FDCA30"/>
<path d="M362.346 95.199C364.327 92.2434 368.673 92.2434 370.654 95.199L430.134 183.967C432.36 187.289 429.979 191.75 425.98 191.75H307.02C303.021 191.75 300.64 187.289 302.866 183.967L362.346 95.199Z" fill="#FDCA30"/>
</g>
</svg>
