<svg width="66" height="66" viewBox="0 0 66 66" fill="none" xmlns="http://www.w3.org/2000/svg">
<g clip-path="url(#clip0_401_436)">
<path fill-rule="evenodd" clip-rule="evenodd" d="M32.9819 0.000462994C41.4817 0.000462994 49.982 0.000462994 58.4819 0C59.5485 0 60.6054 0.0925989 61.6288 0.404657C63.8478 1.08109 65.0229 2.6724 65.4834 4.86561C65.6661 5.73511 65.7181 6.62174 65.7199 7.50791C65.7334 13.4611 65.7436 19.4143 65.744 25.3674C65.7445 36.2098 65.7459 47.0522 65.7236 57.8946C65.7204 59.4123 65.6397 60.9467 64.8903 62.3292C64.0593 63.8626 62.9213 65.0761 61.1938 65.61C60.8817 65.7063 60.5557 65.816 60.2358 65.816C59.4984 65.8165 58.781 65.9994 58.046 65.9994C41.401 65.998 24.7561 66.0077 8.11112 65.9813C6.75747 65.979 5.38156 65.8804 4.09561 65.3294C3.83963 65.2197 3.58133 65.1275 3.35641 64.9562C1.71895 63.7085 0.607373 62.1523 0.369011 60.0466C0.28322 59.2873 0.255859 58.5322 0.255859 57.7729C0.258642 40.9014 0.260033 24.0299 0.268844 7.15835C0.269308 6.17958 0.27951 5.18415 0.580476 4.24751C1.38228 1.75104 3.1366 0.388452 5.73724 0.111582C6.3415 0.0472254 6.95131 0.00555593 7.55834 0.00509294C16.0327 -0.00185198 24.5075 0.000462994 32.9819 0.000462994Z" fill="#FB7A24"/>
<path fill-rule="evenodd" clip-rule="evenodd" d="M33.1984 41.9815C33.0123 43.1209 32.8818 44.1506 32.4725 45.0998C30.5561 49.5468 27.2906 52.2567 22.3949 52.7961C16.608 53.4337 11.2632 49.8621 9.65611 44.315C9.07366 42.3047 9.132 40.2555 9.34312 38.2095C9.5686 36.0232 10.2126 33.9499 11.2182 31.9943C11.3622 31.7146 11.3595 31.5035 11.1794 31.2326C9.63527 28.9102 9.03616 26.3448 9.25376 23.5756C9.36998 22.0954 9.72926 20.6796 10.4006 19.3536C12.3674 15.4691 16.6857 12.1725 22.4695 12.7198C27.555 13.2009 32.2655 17.5877 33.0007 22.5214C33.0378 22.7691 33.1072 23.0122 33.1887 23.3775C33.3105 22.7158 33.3985 22.17 33.5124 21.6292C34.4596 17.147 38.847 12.4568 45.0659 12.3989C51.3691 12.3406 56.037 17.284 56.9176 21.8755C57.2899 23.8159 57.2251 25.7545 56.9181 27.6921C56.6111 29.6279 56.0426 31.4887 55.2115 33.2624C55.0282 33.6536 55.0471 33.9351 55.2819 34.2986C56.6394 36.4024 57.2385 38.7118 57.1616 41.2199C57.001 46.4531 53.2998 51.146 48.2078 52.3734C41.0985 54.0865 35.6491 49.8348 33.8152 44.6909C33.5161 43.8538 33.3744 42.9797 33.1984 41.9815ZM46.1141 32.7874C46.1901 32.4915 46.4192 32.3142 46.5841 32.0952C48.3666 29.7265 49.3042 27.0805 49.0949 24.1011C48.9426 21.9264 47.154 20.3949 44.9891 20.4759C42.8227 20.5569 41.1902 22.2279 41.1596 24.3956C41.1573 24.5729 41.168 24.7507 41.1569 24.9271C41.0078 27.2375 39.7331 28.5028 37.8015 28.644C37.4487 28.67 37.095 28.7014 36.7417 28.7024C34.2346 28.7079 31.728 28.707 29.2209 28.7047C28.1259 28.7038 27.0402 28.8227 25.9975 29.1445C21.13 30.6465 18.2919 33.9749 17.352 38.9359C17.1659 39.9175 16.9983 40.9361 17.3201 41.9445C17.7817 43.3904 18.6424 44.4659 20.1661 44.8257C21.7454 45.1984 23.1209 44.7859 24.2136 43.5455C24.9201 42.7436 25.1428 41.7907 25.1956 40.7448C25.3322 38.0548 26.7971 36.7103 29.2398 36.7307C32.9873 36.7617 36.7353 36.7372 40.4832 36.7399C41.1485 36.7404 41.1545 36.7492 41.1578 37.4071C41.1643 38.6225 41.1268 39.8392 41.1735 41.0532C41.2499 43.0348 42.9935 44.6821 45.015 44.74C47.0994 44.7997 48.9574 43.258 49.093 41.2453C49.2102 39.5036 49.2028 37.7507 49.0884 36.0075C49 34.6579 48.2698 33.6962 47.0327 33.1378C46.7359 33.0045 46.4239 32.9045 46.1141 32.7874ZM22.6223 28.6987C23.4283 28.6987 24.0863 28.6913 24.7437 28.7019C25.0697 28.707 25.1905 28.5667 25.1877 28.2472C25.1771 26.9828 25.2423 25.7142 25.1618 24.4544C25.0553 22.7922 24.1714 21.5908 22.6241 20.9847C21.0374 20.3634 19.5855 20.718 18.3576 21.8899C17.1242 23.0673 16.9598 24.5072 17.3914 26.0832C17.7877 27.5315 18.7243 28.3542 20.1971 28.6028C21.0527 28.7468 21.913 28.6778 22.6223 28.6987Z" fill="white"/>
</g>
<defs>
<clipPath id="clip0_401_436">
<rect width="66" height="66" fill="white"/>
</clipPath>
</defs>
</svg>
